<svg xmlns="http://www.w3.org/2000/svg" viewBox="0 0 240 64" role="img" aria-label="Hungry Lion">
  <defs>
    <linearGradient id="lionGrad" x1="0%" y1="0%" x2="100%" y2="100%">
      <stop offset="0%" style="stop-color:#FFD200"/>
      <stop offset="100%" style="stop-color:#F5A800"/>
    </linearGradient>
  </defs>
  <!-- Lion head icon -->
  <g transform="translate(4, 8)">
    <circle cx="24" cy="24" r="22" fill="#E31E24"/>
    <circle cx="24" cy="24" r="18" fill="url(#lionGrad)"/>
    <!-- Mane -->
    <path d="M6 18c-2 8 0 18 6 24 2-6 2-12 0-18-2-2-4-4-6-6z" fill="#E31E24"/>
    <path d="M42 18c2 8 0 18-6 24-2-6-2-12 0-18 2-2 4-4 6-6z" fill="#E31E24"/>
    <path d="M12 6c6-4 18-4 24 0-4 4-6 8-6 12H18c0-4-2-8-6-12z" fill="#E31E24"/>
    <!-- Face -->
    <ellipse cx="24" cy="28" rx="10" ry="8" fill="#FFD200"/>
    <circle cx="19" cy="24" r="2.5" fill="#1a1a1a"/>
    <circle cx="29" cy="24" r="2.5" fill="#1a1a1a"/>
    <ellipse cx="24" cy="30" rx="4" ry="3" fill="#E31E24"/>
    <path d="M22 32h4" stroke="#1a1a1a" stroke-width="1.5" stroke-linecap="round"/>
  </g>
  <!-- Text -->
  <text x="58" y="30" font-family="Bebas Neue, Impact, sans-serif" font-size="28" font-weight="bold" fill="#E31E24" letter-spacing="1">HUNGRY</text>
  <text x="58" y="54" font-family="Bebas Neue, Impact, sans-serif" font-size="28" font-weight="bold" fill="#FFD200" stroke="#E31E24" stroke-width="0.5" letter-spacing="1">LION</text>
</svg>
